<svg width="26" height="26" viewBox="0 0 26 26" fill="none" xmlns="http://www.w3.org/2000/svg">
<path d="M13.4797 14.7878C15.2056 14.7878 16.6047 13.3887 16.6047 11.6628C16.6047 9.93689 15.2056 8.53778 13.4797 8.53778C11.7538 8.53778 10.3547 9.93689 10.3547 11.6628C10.3547 13.3887 11.7538 14.7878 13.4797 14.7878Z" stroke="black" stroke-width="1.5" stroke-linecap="round" stroke-linejoin="round"/>
<path d="M3.32349 11.2722H5.66724" stroke="black" stroke-width="1.5" stroke-linecap="round" stroke-linejoin="round"/>
<path d="M3.32349 7.36591H5.66724" stroke="black" stroke-width="1.5" stroke-linecap="round" stroke-linejoin="round"/>
<path d="M3.32349 15.1784H5.66724" stroke="black" stroke-width="1.5" stroke-linecap="round" stroke-linejoin="round"/>
<path d="M3.32349 19.0847H5.66724" stroke="black" stroke-width="1.5" stroke-linecap="round" stroke-linejoin="round"/>
<path d="M8.79224 17.1315C9.33802 16.4038 10.0457 15.8132 10.8593 15.4064C11.673 14.9996 12.5701 14.7878 13.4797 14.7878C14.3894 14.7878 15.2865 14.9996 16.1001 15.4064C16.9137 15.8132 17.6215 16.4038 18.1672 17.1315" stroke="black" stroke-width="1.5" stroke-linecap="round" stroke-linejoin="round"/>
<path d="M21.2922 21.819V4.63153C21.2922 4.20006 20.9425 3.85028 20.511 3.85028L6.44849 3.85028C6.01701 3.85028 5.66724 4.20006 5.66724 4.63153L5.66724 21.819C5.66724 22.2505 6.01701 22.6003 6.44849 22.6003H20.511C20.9425 22.6003 21.2922 22.2505 21.2922 21.819Z" stroke="black" stroke-width="1.5" stroke-linecap="round" stroke-linejoin="round"/>
</svg>
