<svg width="19" height="19" viewBox="0 0 19 19" fill="none" xmlns="http://www.w3.org/2000/svg">
<path d="M1.58328 0.833333H1.22006C1.33224 0.779 1.45627 0.75 1.58328 0.75H7.12477C7.1358 0.75 7.14639 0.754384 7.1542 0.762195C7.16201 0.770008 7.16641 0.780609 7.16641 0.791667C7.16641 0.802725 7.16201 0.813326 7.1542 0.821138C7.14639 0.82895 7.1358 0.833333 7.12477 0.833333H1.58328ZM0.75 1.58333C0.75 1.45635 0.778982 1.33235 0.833282 1.22019V1.58333V17.4167V17.7798C0.778982 17.6677 0.75 17.5437 0.75 17.4167V1.58333ZM1.58328 18.25C1.45627 18.25 1.33225 18.221 1.22006 18.1667H1.58328H7.12477C7.1358 18.1667 7.14639 18.1711 7.1542 18.1789C7.16201 18.1867 7.16641 18.1973 7.16641 18.2083C7.16641 18.2194 7.16201 18.23 7.1542 18.2378C7.14639 18.2456 7.1358 18.25 7.12477 18.25H1.58328ZM18.2375 9.47022L18.2378 9.47051C18.2417 9.47438 18.2447 9.47898 18.2468 9.48404C18.2489 9.48909 18.25 9.49451 18.25 9.5C18.25 9.50549 18.2489 9.51091 18.2468 9.51596C18.2447 9.52102 18.2417 9.52562 18.2378 9.52949L18.2375 9.52978L14.2793 13.4881C14.2714 13.496 14.2607 13.5004 14.2495 13.5004C14.2384 13.5004 14.2277 13.496 14.2198 13.4881C14.2119 13.4802 14.2075 13.4695 14.2075 13.4583C14.2075 13.4472 14.2119 13.4364 14.2198 13.4286L16.8272 10.8221L18.108 9.54167H16.2969H7.12477C7.11373 9.54167 7.10314 9.53728 7.09533 9.52947C7.08752 9.52166 7.08313 9.51106 7.08313 9.5C7.08313 9.48894 7.08752 9.47834 7.09533 9.47053C7.10314 9.46272 7.11373 9.45833 7.12477 9.45833H16.2969H18.108L16.8272 8.17791L14.2198 5.57145C14.2119 5.56355 14.2075 5.55284 14.2075 5.54167C14.2075 5.53049 14.2119 5.51978 14.2198 5.51188C14.2277 5.50399 14.2384 5.49956 14.2495 5.49956C14.2607 5.49956 14.2714 5.50399 14.2793 5.51188L18.2375 9.47022Z" fill="black" stroke="black" stroke-width="1.5"/>
</svg>
