<svg width="26" height="26" viewBox="0 0 26 26" fill="none" xmlns="http://www.w3.org/2000/svg">
<path d="M23.8997 12.7628L21.4875 13.964L18.3625 7.98741L20.804 6.7667C20.9854 6.67422 21.196 6.65722 21.3899 6.71942C21.5839 6.78162 21.7453 6.91797 21.8391 7.09873L24.2415 11.6983C24.2902 11.7904 24.32 11.8913 24.3291 11.9951C24.3383 12.0988 24.3266 12.2034 24.2947 12.3026C24.2629 12.4017 24.2115 12.4935 24.1437 12.5726C24.0758 12.6516 23.9929 12.7163 23.8997 12.7628Z" stroke="black" stroke-width="1.5" stroke-linecap="round" stroke-linejoin="round"/>
<path d="M4.30013 13.8662L1.88802 12.6553C1.79514 12.6098 1.71237 12.546 1.64462 12.4679C1.57686 12.3897 1.52552 12.2988 1.49363 12.2004C1.46175 12.102 1.44997 11.9982 1.459 11.8952C1.46804 11.7921 1.4977 11.692 1.54622 11.6006L3.94856 7.001C4.04254 6.82037 4.20333 6.68356 4.39668 6.61972C4.59003 6.55588 4.80066 6.57004 4.98372 6.6592L7.42513 7.87991L4.30013 13.8662Z" stroke="black" stroke-width="1.5" stroke-linecap="round" stroke-linejoin="round"/>
<path d="M21.4875 13.9639L19.925 15.7999L16.3313 19.3936C16.2334 19.4852 16.1147 19.5517 15.9854 19.5874C15.8562 19.6231 15.7202 19.627 15.5891 19.5987L9.92505 18.1827C9.82158 18.1538 9.72517 18.104 9.64185 18.0362L4.30005 13.8663" stroke="black" stroke-width="1.5" stroke-linecap="round" stroke-linejoin="round"/>
<path d="M19.9251 15.7999L15.6282 12.6749L14.3782 13.6124C13.8366 14.0166 13.179 14.2349 12.5032 14.2349C11.8274 14.2349 11.1698 14.0166 10.6282 13.6124L10.1009 13.212C10.0117 13.1442 9.93792 13.0582 9.88446 12.9598C9.831 12.8613 9.79906 12.7527 9.79075 12.641C9.78244 12.5292 9.79796 12.417 9.83626 12.3118C9.87457 12.2065 9.9348 12.1106 10.013 12.0303L13.8411 8.21198C13.913 8.14042 13.9983 8.08375 14.0922 8.04521C14.186 8.00667 14.2865 7.98701 14.388 7.98737H18.3626" stroke="black" stroke-width="1.5" stroke-linecap="round" stroke-linejoin="round"/>
<path d="M7.48364 7.87994L12.4934 6.4151C12.6714 6.36405 12.8618 6.37789 13.0305 6.45416L16.4094 7.98736" stroke="black" stroke-width="1.5" stroke-linecap="round" stroke-linejoin="round"/>
<path d="M11.3313 21.6592L8.39185 20.9171C8.27206 20.89 8.16115 20.8329 8.06958 20.751L5.86255 18.837" stroke="black" stroke-width="1.5" stroke-linecap="round" stroke-linejoin="round"/>
</svg>
